<?xml version="1.0" encoding="UTF-8" standalone="no"?>
<svg
   xmlns:dc="http://purl.org/dc/elements/1.1/"
   xmlns:cc="http://creativecommons.org/ns#"
   xmlns:rdf="http://www.w3.org/1999/02/22-rdf-syntax-ns#"
   xmlns:svg="http://www.w3.org/2000/svg"
   xmlns="http://www.w3.org/2000/svg"
   xmlns:xlink="http://www.w3.org/1999/xlink"
   height="717.46002"
   width="717.46002"
   version="1.1"
   viewBox="0 0 717.46002 717.46"
   data-name="Capa 1"
   id="Capa_1">
  <metadata
     id="metadata95">
    <rdf:RDF>
      <cc:Work
         rdf:about="">
        <dc:format>image/svg+xml</dc:format>
        <dc:type
           rdf:resource="http://purl.org/dc/dcmitype/StillImage" />
        <dc:title>logo_round</dc:title>
      </cc:Work>
    </rdf:RDF>
  </metadata>
  <defs
     id="defs13">
    <style
       id="style2">.cls-1,.cls-8{fill:#fff;}.cls-2{font-size:142px;fill:#88c064;}.cls-2,.cls-8{font-family:ProximaNova-Bold, Proxima Nova;font-weight:700;}.cls-3{fill:#e7eaed;}.cls-4,.cls-8{font-size:65px;}.cls-4,.cls-5{fill:#bcbcbc;font-family:ProximaNova-Regular, Proxima Nova;}.cls-5{font-size:60px;}.cls-6{letter-spacing:-0.01em;}.cls-7{fill:#aeef33;}.cls-9{fill:#999;}.cls-10{fill:url(#Degradado_sin_nombre_6);}.cls-11{fill:url(#Degradado_sin_nombre_6-2);}.cls-12{fill:url(#Degradado_sin_nombre_6-3);}</style>
    <linearGradient
       gradientUnits="userSpaceOnUse"
       y2="704.65997"
       x2="822.20001"
       y1="704.65997"
       x1="303.56"
       id="Degradado_sin_nombre_6">
      <stop
         id="stop4"
         stop-color="#a0ce9e"
         offset="0" />
      <stop
         id="stop6"
         stop-color="#88c064"
         offset="0.51" />
      <stop
         id="stop8"
         stop-color="#9cc438"
         offset="1" />
    </linearGradient>
    <linearGradient
       xlink:href="#Degradado_sin_nombre_6"
       y2="550.90002"
       x2="737.17999"
       y1="550.90002"
       x1="679.54999"
       id="Degradado_sin_nombre_6-2" />
    <linearGradient
       xlink:href="#Degradado_sin_nombre_6"
       y2="858.10999"
       x2="447.82999"
       y1="858.10999"
       x1="390.20999"
       id="Degradado_sin_nombre_6-3" />
    <linearGradient
       y2="704.65997"
       x2="822.20001"
       y1="704.65997"
       x1="303.56"
       gradientUnits="userSpaceOnUse"
       id="linearGradient990"
       xlink:href="#Degradado_sin_nombre_6" />
  </defs>
  <title
     id="title15">logo_round</title>
  <g
     transform="translate(955.93039,-410.79691)"
     id="g1016">
    <g
       id="g942"
       transform="matrix(0.92185555,0,0,0.92185555,-1111.7585,120.40602)">
      <path
         id="path74"
         transform="translate(0.2,-0.31)"
         d="m 801,485 a 114.1,114.1 0 0 0 -203.5,37.82 27.38,27.38 0 0 0 -4.07,-0.41 H 495 a 80.69,80.69 0 1 0 -2.94,54.44 h 101.36 a 26.24,26.24 0 0 0 3.21,-0.33 113.46,113.46 0 0 0 14.08,34.22 L 476.64,760.32 a 114.15,114.15 0 1 0 -5,198.44 117,117 0 0 0 12.36,-7.66 113.25,113.25 0 0 0 44.15,-64 27.13,27.13 0 0 0 5.44,0.55 h 96.33 c 8.94,34.83 40.6,60.81 78.11,60.81 a 81,81 0 0 0 80.73,-80.72 v 0 A 80.63,80.63 0 0 0 635.22,833.22 H 533.56 a 27.34,27.34 0 0 0 -4.28,0.43 113.12,113.12 0 0 0 -14.11,-34.91 L 649.31,649.11 A 114.15,114.15 0 0 0 801,485 Z M 493.55,870.85 a 76.84,76.84 0 1 1 -13.18,-57.34 76.36,76.36 0 0 1 13.18,57.34 z M 783.81,564 A 76.79,76.79 0 0 1 658.9,610.25 c -2.4,-2.25 -3.51,-3.36 -5.4,-5.25 -1.89,-1.89 -3,-3 -5,-5.28 -1,-1.29 -2.12,-2.54 -3.1,-3.91 a 76.88,76.88 0 0 1 18,-107.22 76.86,76.86 0 0 1 107.2,18 v 0 A 76.32,76.32 0 0 1 783.81,564 Z"
         class="cls-3" />
      <circle
         id="circle76"
         r="28.809999"
         cy="550.90002"
         cx="708.37"
         class="cls-3" />
      <path
         id="path78"
         transform="translate(0.2,-0.31)"
         d="M 419,829.3 A 28.81,28.81 0 1 0 447.81,858.11 28.81,28.81 0 0 0 419,829.3 Z"
         class="cls-3" />
      <path
         id="path80"
         transform="translate(0.2,-0.31)"
         d="m 801.39,485 a 114.1,114.1 0 0 0 -203.5,37.82 27.38,27.38 0 0 0 -4.07,-0.41 h -98.38 a 80.69,80.69 0 1 0 -2.94,54.44 h 101.32 a 26.24,26.24 0 0 0 3.21,-0.33 113.46,113.46 0 0 0 14.08,34.22 L 477,760.32 a 114.15,114.15 0 1 0 -5,198.44 117,117 0 0 0 12.3,-7.66 113.25,113.25 0 0 0 44.15,-64 27.13,27.13 0 0 0 5.44,0.55 h 96.33 c 8.94,34.83 40.6,60.81 78.11,60.81 a 81,81 0 0 0 80.73,-80.72 v 0 A 80.63,80.63 0 0 0 635.52,833.22 H 534 a 27.34,27.34 0 0 0 -4.28,0.43 113.12,113.12 0 0 0 -14.11,-34.91 L 649.71,649.11 A 114.15,114.15 0 0 0 801.39,485 Z M 494,870.85 A 76.84,76.84 0 1 1 480.82,813.51 76.36,76.36 0 0 1 494,870.85 Z M 784.21,564 A 76.79,76.79 0 0 1 659.3,610.25 c -2.4,-2.25 -3.51,-3.36 -5.4,-5.25 -1.89,-1.89 -3,-3 -5,-5.28 -1,-1.29 -2.12,-2.54 -3.1,-3.91 a 76.88,76.88 0 0 1 18,-107.22 76.86,76.86 0 0 1 107.2,18 v 0 A 76.32,76.32 0 0 1 784.21,564 Z"
         class="cls-3" />
      <circle
         id="circle82"
         r="28.809999"
         cy="550.90002"
         cx="708.77002"
         class="cls-3" />
      <path
         id="path84"
         transform="translate(0.2,-0.31)"
         d="m 419.42,829.3 a 28.81,28.81 0 1 0 28.81,28.81 28.81,28.81 0 0 0 -28.81,-28.81 z"
         class="cls-3" />
      <path
         id="path86"
         transform="translate(0.2,-0.31)"
         d="m 801,485 a 114.1,114.1 0 0 0 -203.5,37.82 27.38,27.38 0 0 0 -4.07,-0.41 H 495 a 80.69,80.69 0 1 0 -2.94,54.44 h 101.36 a 26.24,26.24 0 0 0 3.21,-0.33 113.46,113.46 0 0 0 14.08,34.22 L 476.64,760.32 a 114.15,114.15 0 1 0 -5,198.44 117,117 0 0 0 12.36,-7.66 113.25,113.25 0 0 0 44.15,-64 27.13,27.13 0 0 0 5.44,0.55 h 96.33 c 8.94,34.83 40.6,60.81 78.11,60.81 a 81,81 0 0 0 80.73,-80.72 v 0 A 80.63,80.63 0 0 0 635.22,833.22 H 533.56 a 27.34,27.34 0 0 0 -4.28,0.43 113.12,113.12 0 0 0 -14.11,-34.91 L 649.31,649.11 A 114.15,114.15 0 0 0 801,485 Z M 493.55,870.85 a 76.84,76.84 0 1 1 -13.18,-57.34 76.36,76.36 0 0 1 13.18,57.34 z M 783.81,564 A 76.79,76.79 0 0 1 658.9,610.25 c -2.4,-2.25 -3.51,-3.36 -5.4,-5.25 -1.89,-1.89 -3,-3 -5,-5.28 -1,-1.29 -2.12,-2.54 -3.1,-3.91 a 76.88,76.88 0 0 1 18,-107.22 76.86,76.86 0 0 1 107.2,18 v 0 A 76.32,76.32 0 0 1 783.81,564 Z"
         class="cls-10"
         style="fill:url(#linearGradient990)" />
      <circle
         id="circle88"
         r="28.809999"
         cy="550.90002"
         cx="708.37"
         class="cls-11"
         style="fill:url(#Degradado_sin_nombre_6-2)" />
      <path
         id="path90"
         transform="translate(0.2,-0.31)"
         d="M 419,829.3 A 28.81,28.81 0 1 0 447.81,858.11 28.81,28.81 0 0 0 419,829.3 Z"
         class="cls-12"
         style="fill:url(#Degradado_sin_nombre_6-3)" />
    </g>
    <circle
       id="circle215"
       r="338.73001"
       cy="769.52692"
       cx="-597.20038"
       class="cls-12"
       style="fill:none;stroke:#88c064;stroke-width:40px;stroke-linecap:round;stroke-linejoin:round" />
  </g>
</svg>
