<svg width="62" height="62" viewBox="0 0 62 62" fill="none" xmlns="http://www.w3.org/2000/svg">
<path d="M2.00001 31.0002C2.00002 36.738 3.70212 42.3468 6.8909 47.1169C10.0797 51.887 14.6118 55.6039 19.9138 57.7974C25.2158 59.9909 31.0492 60.5623 36.6761 59.4393C42.3029 58.3162 47.4701 55.5493 51.5238 51.4886C55.5775 47.4278 58.3356 42.2559 59.4489 36.6271C60.5622 30.9984 59.9808 25.1659 57.7781 19.8677C55.5755 14.5695 51.8508 10.0437 47.0752 6.8632C42.2996 3.68266 36.6878 1.99027 30.95 2.00017C27.144 2.00016 23.3754 2.75066 19.8598 4.20866C16.3441 5.66666 13.1505 7.80356 10.4616 10.4971C7.77267 13.1907 5.64127 16.388 4.18934 19.9062C2.73741 23.4243 1.99344 27.1942 2.00001 31.0002" stroke="#88C064" stroke-width="4" stroke-miterlimit="10" stroke-linecap="round"/>
<path d="M50.21 32.8601H31.53C31.4123 32.8614 31.2955 32.8394 31.1864 32.7953C31.0772 32.7512 30.9779 32.6858 30.8942 32.603C30.8105 32.5203 30.7441 32.4217 30.6987 32.3131C30.6534 32.2045 30.63 32.0878 30.63 31.9701V13.2802" stroke="#88C064" stroke-width="4" stroke-miterlimit="10" stroke-linecap="round"/>
</svg>
