<?xml version="1.0" encoding="UTF-8" standalone="no"?>
<svg
   xmlns:dc="http://purl.org/dc/elements/1.1/"
   xmlns:cc="http://creativecommons.org/ns#"
   xmlns:rdf="http://www.w3.org/1999/02/22-rdf-syntax-ns#"
   xmlns:svg="http://www.w3.org/2000/svg"
   xmlns="http://www.w3.org/2000/svg"
   xmlns:xlink="http://www.w3.org/1999/xlink"
   height="55.997738"
   width="56.0536"
   id="svg167"
   version="1.1"
   viewBox="0 0 56.0536 55.997737">
  <metadata
     id="metadata171">
    <rdf:RDF>
      <cc:Work
         rdf:about="">
        <dc:format>image/svg+xml</dc:format>
        <dc:type
           rdf:resource="http://purl.org/dc/dcmitype/StillImage" />
        <dc:title>finish_route</dc:title>
      </cc:Work>
    </rdf:RDF>
  </metadata>
  <defs
     id="defs19">
    <style
       id="style2">.cls-1,.cls-14,.cls-15,.cls-20,.cls-23,.cls-24,.cls-6{fill:none;}.cls-2{isolation:isolate;}.cls-16,.cls-3,.cls-8{fill:#fff;}.cls-4{fill:#999;}.cls-5{font-size:121px;}.cls-25,.cls-5{fill:#88c064;}.cls-5,.cls-8{font-family:ProximaNova-Bold, Proxima Nova;font-weight:700;}.cls-6{stroke:#bcbcbc;stroke-width:13px;}.cls-14,.cls-20,.cls-6{stroke-linecap:round;}.cls-15,.cls-16,.cls-20,.cls-23,.cls-24,.cls-6{stroke-miterlimit:10;}.cls-7{fill:url(#Degradado_sin_nombre_6);}.cls-8{font-size:65px;}.cls-9{letter-spacing:-0.07em;}.cls-10{fill:#c4c4c4;}.cls-11{fill:url(#Degradado_sin_nombre_6-2);}.cls-12{opacity:0.25;}.cls-12,.cls-19{mix-blend-mode:multiply;}.cls-13{clip-path:url(#clip-path);}.cls-14{stroke-linejoin:round;stroke:url(#Degradado_sin_nombre_6-3);}.cls-14,.cls-15{stroke-width:20px;}.cls-15{stroke:url(#Degradado_sin_nombre_6-4);}.cls-16{stroke-width:16px;stroke:url(#Degradado_sin_nombre_6-5);}.cls-17{fill:url(#Degradado_sin_nombre_6-6);}.cls-18{fill:#1d1d1b;}.cls-19{opacity:0.3;}.cls-20,.cls-23,.cls-24{stroke:#88c064;}.cls-20,.cls-23{stroke-width:4px;}.cls-21{font-size:48px;fill:#919191;font-family:ProximaNova-Regular, Proxima Nova;}.cls-22{letter-spacing:-0.01em;}.cls-24{stroke-width:3px;}</style>
    <linearGradient
       gradientUnits="userSpaceOnUse"
       y2="2194"
       x2="1037.8"
       y1="2194"
       x1="146.8"
       id="Degradado_sin_nombre_6">
      <stop
         id="stop4"
         stop-color="#a0ce9e"
         offset="0" />
      <stop
         id="stop6"
         stop-color="#88c064"
         offset="0.51" />
      <stop
         id="stop8"
         stop-color="#9cc438"
         offset="1" />
    </linearGradient>
    <linearGradient
       xlink:href="#Degradado_sin_nombre_6"
       y2="2388.1699"
       x2="673.79999"
       y1="2388.1699"
       x1="652.79999"
       id="Degradado_sin_nombre_6-2" />
    <clipPath
       transform="translate(30 61)"
       id="clip-path">
      <rect
         id="rect12"
         rx="95.5"
         height="1503"
         width="1125"
         y="418"
         x="-0.2"
         class="cls-1" />
    </clipPath>
    <linearGradient
       xlink:href="#Degradado_sin_nombre_6"
       y2="933.37"
       x2="890.70001"
       y1="933.37"
       x1="380.70001"
       id="Degradado_sin_nombre_6-3" />
    <linearGradient
       xlink:href="#Degradado_sin_nombre_6"
       gradientTransform="rotate(-70.62,2386.6354,2666.5947)"
       y2="-440.92001"
       x2="4686.3301"
       y1="-440.92001"
       x1="4610.3301"
       id="Degradado_sin_nombre_6-4" />
    <linearGradient
       xlink:href="#Degradado_sin_nombre_6"
       gradientTransform="rotate(-70.62,2676.7498,3918.7723)"
       y2="-107.86"
       x2="4345.21"
       y1="-107.86"
       x1="4270.8599"
       id="Degradado_sin_nombre_6-5" />
    <linearGradient
       gradientTransform="translate(-1171.04,22.94)"
       xlink:href="#Degradado_sin_nombre_6"
       y2="1020.91"
       x2="598.92999"
       y1="1020.91"
       x1="582.92999"
       id="Degradado_sin_nombre_6-6" />
    <linearGradient
       id="Degradado_sin_nombre_6-5-3"
       x1="4270.8599"
       y1="-107.86"
       x2="4345.21"
       y2="-107.86"
       gradientTransform="rotate(-70.62,2386.6354,2666.5947)"
       xlink:href="#Degradado_sin_nombre_6" />
    <linearGradient
       id="Degradado_sin_nombre_6-6-7"
       x1="582.92999"
       y1="1020.91"
       x2="598.92999"
       y2="1020.91"
       xlink:href="#Degradado_sin_nombre_6"
       gradientTransform="translate(-183.65786,-1087.4012)" />
    <linearGradient
       id="Degradado_sin_nombre_6-4-3"
       x1="4610.3301"
       y1="-440.92001"
       x2="4686.3301"
       y2="-440.92001"
       gradientTransform="rotate(-70.62,2737.5419,3015.5862)"
       xlink:href="#Degradado_sin_nombre_6" />
    <linearGradient
       id="Degradado_sin_nombre_6-5-5"
       x1="4270.8599"
       y1="-107.86"
       x2="4345.21"
       y2="-107.86"
       gradientTransform="rotate(-70.62,2737.5419,3015.5862)"
       xlink:href="#Degradado_sin_nombre_6" />
    <linearGradient
       id="Degradado_sin_nombre_6-6-4"
       x1="582.92999"
       y1="1020.91"
       x2="598.92999"
       y2="1020.91"
       xlink:href="#Degradado_sin_nombre_6"
       gradientTransform="translate(-278.41044,-523.19267)" />
  </defs>
  <title
     id="title21">finish_route</title>
  <g
     transform="translate(-568.3804,-699.68722)"
     id="g1441">
    <rect
       class="cls-3"
       x="578.18951"
       y="734.47729"
       width="12.33"
       height="12.33"
       id="rect80"
       style="isolation:isolate;fill:#ffffff" />
    <rect
       class="cls-3"
       x="602.85956"
       y="734.47729"
       width="12.33"
       height="12.33"
       id="rect82"
       style="isolation:isolate;fill:#ffffff" />
    <rect
       class="cls-18"
       x="602.85956"
       y="722.13721"
       width="12.33"
       height="12.33"
       id="rect84"
       style="isolation:isolate;fill:#1d1d1b" />
    <rect
       class="cls-18"
       x="590.51959"
       y="734.47729"
       width="12.33"
       height="12.33"
       id="rect86"
       style="isolation:isolate;fill:#1d1d1b" />
    <path
       class="cls-18"
       d="m 615.18956,709.80733 v -2.87 a 28,28 0 0 0 -10.87,-6.1 c -0.49,-0.14 -1,-0.27 -1.46,-0.39 v 9.36 z"
       id="path88"
       style="isolation:isolate;fill:#1d1d1b" />
    <rect
       class="cls-3"
       x="602.85956"
       y="709.80725"
       width="12.33"
       height="12.33"
       id="rect90"
       style="isolation:isolate;fill:#ffffff" />
    <rect
       class="cls-3"
       x="590.51959"
       y="722.13721"
       width="12.33"
       height="12.33"
       id="rect92"
       style="isolation:isolate;fill:#ffffff" />
    <path
       class="cls-3"
       d="m 602.85956,709.80733 v -9.36 a 28,28 0 0 0 -12.34,-0.14 v 9.5 z"
       id="path94"
       style="isolation:isolate;fill:#ffffff" />
    <rect
       class="cls-18"
       x="578.18951"
       y="722.13721"
       width="12.33"
       height="12.33"
       id="rect96"
       style="isolation:isolate;fill:#1d1d1b" />
    <path
       class="cls-3"
       d="m 617.92956,709.80733 a 27.51,27.51 0 0 0 -2.74,-2.87 v 2.87 z"
       id="path98"
       style="isolation:isolate;fill:#ffffff" />
    <rect
       class="cls-18"
       x="590.51959"
       y="709.80725"
       width="12.33"
       height="12.33"
       id="rect100"
       style="isolation:isolate;fill:#1d1d1b" />
    <rect
       class="cls-3"
       x="578.18951"
       y="709.80725"
       width="12.33"
       height="12.33"
       id="rect102"
       style="isolation:isolate;fill:#ffffff" />
    <path
       class="cls-3"
       d="m 615.18956,734.47733 h 8.4 a 27.87,27.87 0 0 0 0.29,-12.34 h -8.69 z"
       id="path104"
       style="isolation:isolate;fill:#ffffff" />
    <path
       class="cls-18"
       d="m 578.18956,746.80733 v 2.17 a 27.84,27.84 0 0 0 10.25,5.56 c 0.69,0.21 1.39,0.38 2.08,0.52 v -8.25 z"
       id="path106"
       style="isolation:isolate;fill:#1d1d1b" />
    <path
       class="cls-3"
       d="m 590.51956,746.80733 v 8.25 a 27.89,27.89 0 0 0 12.34,-0.13 v -8.12 z"
       id="path108"
       style="isolation:isolate;fill:#ffffff" />
    <path
       class="cls-3"
       d="m 615.18956,748.43733 c 0.57,-0.52 1.12,-1.06 1.65,-1.63 h -1.65 z"
       id="path110"
       style="isolation:isolate;fill:#ffffff" />
    <path
       class="cls-18"
       d="m 590.51956,709.80733 v -9.5 a 28.14,28.14 0 0 0 -12.33,6.1 v 3.4 z"
       id="path112"
       style="isolation:isolate;fill:#1d1d1b" />
    <path
       class="cls-18"
       d="m 615.18956,746.80733 h 1.65 a 27.94,27.94 0 0 0 6.39,-11.18 c 0.12,-0.38 0.22,-0.77 0.31,-1.15 h -8.35 z"
       id="path114"
       style="isolation:isolate;fill:#1d1d1b" />
    <path
       class="cls-18"
       d="m 615.18956,709.80733 v 12.33 h 8.64 a 28.22,28.22 0 0 0 -5.9,-12.33 z"
       id="path116"
       style="isolation:isolate;fill:#1d1d1b" />
    <path
       class="cls-18"
       d="m 602.85956,746.80733 v 8.12 a 28.15,28.15 0 0 0 12.33,-6.49 v -1.63 z"
       id="path118"
       style="isolation:isolate;fill:#1d1d1b" />
    <path
       class="cls-18"
       d="m 578.18956,709.80733 h -3.36 a 28,28 0 0 0 -5.3,9.94 c -0.23,0.8 -0.42,1.6 -0.59,2.39 h 9.25 z"
       id="path120"
       style="isolation:isolate;fill:#1d1d1b" />
    <path
       class="cls-3"
       d="m 578.18956,706.40733 a 28.41,28.41 0 0 0 -3.36,3.4 h 3.36 z"
       id="path122"
       style="isolation:isolate;fill:#ffffff" />
    <path
       class="cls-3"
       d="m 575.92956,746.80733 a 29,29 0 0 0 2.26,2.17 v -2.17 z"
       id="path124"
       style="isolation:isolate;fill:#ffffff" />
    <path
       class="cls-18"
       d="m 578.18956,734.47733 h -9 a 28.09,28.09 0 0 0 6.71,12.33 h 2.26 z"
       id="path126"
       style="isolation:isolate;fill:#1d1d1b" />
    <path
       class="cls-3"
       d="m 578.18956,722.13733 h -9.25 a 27.86,27.86 0 0 0 0.28,12.34 h 9 z"
       id="path128"
       style="isolation:isolate;fill:#ffffff" />
  </g>
</svg>
