<svg width="24" height="24" viewBox="0 0 24 24" fill="none" xmlns="http://www.w3.org/2000/svg">
<path fill-rule="evenodd" clip-rule="evenodd" d="M15.9257 18.75H8.07434C4.75284 18.75 1.92497 16.3336 1.40694 13.0527C1.29681 12.3552 1.29681 11.6448 1.40694 10.9473C1.92497 7.6664 4.75285 5.25 8.07434 5.25H15.9257C19.2472 5.25 22.075 7.6664 22.5931 10.9473C22.7032 11.6448 22.7032 12.3552 22.5931 13.0527C22.075 16.3336 19.2472 18.75 15.9257 18.75ZM15.9257 17.25C18.5091 17.25 20.7085 15.3706 21.1114 12.8188C21.1971 12.2763 21.1971 11.7237 21.1114 11.1812C20.7085 8.62942 18.5091 6.75 15.9257 6.75L8.07434 6.75C5.49096 6.75 3.2915 8.62942 2.88859 11.1812C2.80293 11.7237 2.80293 12.2763 2.88858 12.8188C3.2915 15.3706 5.49095 17.25 8.07434 17.25H15.9257Z" fill="black"/>
<circle cx="7" cy="12" r="1" fill="black"/>
<circle cx="4" cy="12" r="1" fill="black"/>
<circle cx="10" cy="12" r="1" fill="black"/>
<circle cx="13" cy="12" r="1" fill="black"/>
<circle cx="16" cy="12" r="1" fill="black"/>
<circle cx="19" cy="12" r="1" fill="black"/>
</svg>
