<svg width="49" height="62" viewBox="0 0 49 62" fill="none" xmlns="http://www.w3.org/2000/svg">
<path d="M28.6849 26.5682C34.757 24.0394 37.6294 17.0668 35.1006 10.9947C32.5718 4.9225 25.5992 2.05004 19.5271 4.57888C13.4549 7.10772 10.5825 14.0803 13.1113 20.1524C15.6402 26.2246 22.6127 29.0971 28.6849 26.5682Z" stroke="#88C064" stroke-width="4" stroke-miterlimit="10"/>
<path d="M24.1 31.5644C21.1974 31.5631 18.323 32.1338 15.6411 33.2439C12.9593 34.3541 10.5225 35.982 8.47002 38.0345C6.41758 40.0869 4.78975 42.5236 3.67958 45.2055C2.56942 47.8874 1.99869 50.7618 2 53.6643V53.6643C2 55.2026 2.61107 56.678 3.69878 57.7657C4.78649 58.8534 6.26175 59.4644 7.80001 59.4644H40.4C41.9383 59.4644 43.4135 58.8534 44.5012 57.7657C45.5889 56.678 46.2 55.2026 46.2 53.6643V53.6643C46.2013 50.7618 45.6306 47.8874 44.5204 45.2055C43.4103 42.5236 41.7824 40.0869 39.73 38.0345C37.6776 35.982 35.2407 34.3541 32.5589 33.2439C29.877 32.1338 27.0026 31.5631 24.1 31.5644V31.5644Z" stroke="#88C064" stroke-width="4" stroke-miterlimit="10"/>
</svg>
